<?xml version="1.0" encoding="UTF-8" standalone="no"?>
<!-- Created with Inkscape (http://www.inkscape.org/) -->

<svg
   xmlns:dc="http://purl.org/dc/elements/1.1/"
   xmlns:cc="http://creativecommons.org/ns#"
   xmlns:rdf="http://www.w3.org/1999/02/22-rdf-syntax-ns#"
   xmlns:svg="http://www.w3.org/2000/svg"
   xmlns="http://www.w3.org/2000/svg"
   xmlns:sodipodi="http://sodipodi.sourceforge.net/DTD/sodipodi-0.dtd"
   xmlns:inkscape="http://www.inkscape.org/namespaces/inkscape"
   width="140.35503mm"
   height="140.28819mm"
   viewBox="0 0 497.32096 497.08415"
   id="svg2"
   version="1.1"
   inkscape:version="0.92.1 r15371"
   sodipodi:docname="IPythonConnector.svg">
  <defs
     id="defs4">
    <filter
       style="color-interpolation-filters:sRGB"
       inkscape:label="Greyscale"
       id="filter4708">
      <feColorMatrix
         values="0.31 -0.36 1.75 0 0 0.31 -0.36 1.75 0 0 0.31 -0.36 1.75 0 0 0 0 0 1 0 "
         id="feColorMatrix4706" />
    </filter>
    <clipPath
       clipPathUnits="userSpaceOnUse"
       id="clipPath4534">
      <path
         d="M 0,0 H 239 V 109 H 0 Z"
         id="path4532"
         inkscape:connector-curvature="0" />
    </clipPath>
  </defs>
  <sodipodi:namedview
     id="base"
     pagecolor="#ffffff"
     bordercolor="#666666"
     borderopacity="1.0"
     inkscape:pageopacity="0.0"
     inkscape:pageshadow="2"
     inkscape:zoom="0.98994949"
     inkscape:cx="389.87827"
     inkscape:cy="175.0159"
     inkscape:document-units="px"
     inkscape:current-layer="layer1"
     showgrid="false"
     fit-margin-top="0"
     fit-margin-left="0"
     fit-margin-right="0"
     fit-margin-bottom="0"
     inkscape:window-width="1918"
     inkscape:window-height="1042"
     inkscape:window-x="0"
     inkscape:window-y="18"
     inkscape:window-maximized="0" />
  <metadata
     id="metadata7">
    <rdf:RDF>
      <cc:Work
         rdf:about="">
        <dc:format>image/svg+xml</dc:format>
        <dc:type
           rdf:resource="http://purl.org/dc/dcmitype/StillImage" />
        <dc:title></dc:title>
      </cc:Work>
    </rdf:RDF>
  </metadata>
  <g
     inkscape:label="Layer 1"
     inkscape:groupmode="layer"
     id="layer1"
     transform="translate(-145.74728,-211.67799)">
    <g
       id="g6414"
       transform="matrix(2.9107727,0,0,2.9107727,-1795.2486,-1385.08)">
      <path
         style="fill:#e8e8e8;stroke-width:0.9375"
         d="m 673.12689,661.75137 v -2.70316 l 2.10937,-0.56529 2.10938,-0.56529 3.51562,-0.0128 3.51563,-0.0128 V 635.50922 613.1264 l -2.92969,-0.58593 -2.92969,-0.58594 h -2.69531 -2.69531 v -2.8125 -2.8125 h 15.46875 15.46875 v 2.8125 2.8125 h -3.16406 -3.16407 l -2.92968,0.58594 -2.92969,0.58593 v 22.38282 22.38281 l 3.98437,0.0128 3.98438,0.0128 2.10937,0.56529 2.10938,0.5653 v 2.70315 2.70317 h -15.46875 -15.46875 z m 45.9375,-26.46793 v -29.17109 l 12.4378,0.36346 12.4378,0.36346 3.16733,1.8545 3.16733,1.85451 1.80085,2.41631 1.80086,2.4163 0.86135,3.67745 0.86136,3.67744 -1.03164,5.15625 -1.03165,5.15625 -3.53652,3.37778 -3.53652,3.37779 -4.27057,1.07534 -4.27057,1.07534 h -5.6786 -5.67861 v 11.25 11.25 h -3.75 -3.75 z m 19.3812,-0.82076 2.03744,-0.008 2.85255,-2.40026 2.85255,-2.40027 0.5935,-3.16363 0.5935,-3.16363 -1.10845,-3.35866 -1.10846,-3.35866 -2.66223,-1.37669 -2.66222,-1.37669 -6.63469,-0.61663 -6.63469,-0.61663 v 11.51521 11.51521 l 4.92187,-0.59119 4.92188,-0.59118 2.03745,-0.008 z m 29.9938,29.36685 -0.625,-0.625 v -25.15625 -25.15625 h 7.96875 7.96875 v 2.34375 2.34375 h -4.6875 -4.6875 v 20.625 20.625 h 4.6875 4.6875 v 2.8125 2.8125 h -7.34375 -7.34375 z m 20.64831,-0.0318 -1.69543,-0.4393 0.28918,-2.03007 0.28919,-2.03008 2.16866,0.30335 2.16866,0.30335 2.14066,-1.4026 2.14064,-1.40261 1.11173,-2.68398 1.11174,-2.68397 -5.65542,-13.76865 -5.65542,-13.76864 v -0.495 -0.495 h 2.67672 2.67671 l 4.28709,11.01562 4.28708,11.01563 0.85239,-2.34375 0.85238,-2.34375 3.17357,-8.67188 3.17356,-8.67187 h 2.604 2.604 v 0.63195 0.63196 l -5.75269,15.07117 -5.75268,15.07117 -1.80255,3.58654 -1.80255,3.58654 -3.19591,1.33533 -3.19589,1.33534 -1.20199,-0.10875 -1.20199,-0.10875 z m 26.53919,-2.1557 v -2.8125 h 4.6875 4.6875 v -20.625 -20.625 h -4.6875 -4.6875 v -2.34375 -2.34375 h 7.96875 7.96875 v 25.78125 25.78125 h -7.96875 -7.96875 z"
         id="path6458"
         inkscape:connector-curvature="0" />
      <path
         style="fill:#e7e7e7;stroke-width:0.9375"
         d="m 673.12689,661.75137 v -2.70316 l 2.10937,-0.56529 2.10938,-0.56529 3.51562,-0.0128 3.51563,-0.0128 V 635.50922 613.1264 l -2.92969,-0.58593 -2.92969,-0.58594 h -2.69531 -2.69531 v -2.8125 -2.8125 h 15.46875 15.46875 v 2.8125 2.8125 h -3.16406 -3.16407 l -2.92968,0.58594 -2.92969,0.58593 v 22.38282 22.38281 l 3.98437,0.0128 3.98438,0.0128 2.10937,0.56529 2.10938,0.5653 v 2.70315 2.70317 h -15.46875 -15.46875 z m 45.9375,-26.46793 v -29.17109 l 12.4378,0.36346 12.4378,0.36346 3.16733,1.8545 3.16733,1.85451 1.80085,2.41631 1.80086,2.4163 0.86135,3.67745 0.86136,3.67744 -1.03164,5.15625 -1.03165,5.15625 -3.53652,3.37778 -3.53652,3.37779 -4.27057,1.07534 -4.27057,1.07534 h -5.6786 -5.67861 v 11.25 11.25 h -3.75 -3.75 z m 19.3812,-0.82076 2.03744,-0.008 2.85255,-2.40026 2.85255,-2.40027 0.5935,-3.16363 0.5935,-3.16363 -1.10845,-3.35866 -1.10846,-3.35866 -2.66223,-1.37669 -2.66222,-1.37669 -6.63469,-0.61663 -6.63469,-0.61663 v 11.51521 11.51521 l 4.92187,-0.59119 4.92188,-0.59118 2.03745,-0.008 z m 29.79186,28.80458 -0.4556,-1.18727 0.25064,-24.3596 0.25065,-24.35961 7.73437,-0.27229 7.73438,-0.27229 v 2.38167 2.38166 h -4.6875 -4.6875 v 20.57363 20.57364 l 4.45312,0.28574 4.45313,0.28574 0.29664,2.57812 0.29665,2.57813 h -7.59169 -7.5917 z m 20.85025,0.53047 -1.69543,-0.4393 0.28918,-2.03007 0.28919,-2.03008 2.16866,0.30335 2.16866,0.30335 2.14066,-1.4026 2.14064,-1.40261 1.11173,-2.68398 1.11174,-2.68397 -5.65542,-13.76865 -5.65542,-13.76864 v -0.495 -0.495 h 2.67672 2.67671 l 4.28709,11.01562 4.28708,11.01563 0.85239,-2.34375 0.85238,-2.34375 3.17357,-8.67188 3.17356,-8.67187 h 2.604 2.604 v 0.63195 0.63196 l -5.75269,15.07117 -5.75268,15.07117 -1.80255,3.58654 -1.80255,3.58654 -3.19591,1.33533 -3.19589,1.33534 -1.20199,-0.10875 -1.20199,-0.10875 z m 26.89344,-0.70976 -0.55486,-1.44594 0.53964,-1.40625 0.53962,-1.40625 h 4.71693 4.71692 v -20.625 -20.625 h -5.15625 -5.15625 v -2.34375 -2.34375 h 7.98382 7.98381 l -0.24944,25.54687 -0.24944,25.54688 -7.27982,0.27407 -7.27982,0.27406 z"
         id="path6456"
         inkscape:connector-curvature="0" />
      <path
         style="fill:#ddd;stroke-width:0.9375"
         d="m 673.12689,661.78244 v -2.71854 l 2.92969,-0.58593 2.92968,-0.58594 h 2.69532 2.69531 v -22.39066 -22.39066 l -2.10938,-0.56529 -2.10937,-0.56529 -3.51563,-0.0128 -3.51562,-0.0128 v -2.8125 -2.8125 h 15.46875 15.46875 v 2.8125 2.8125 l -3.98438,0.0128 -3.98437,0.0128 -2.10938,0.56529 -2.10937,0.56529 v 22.39066 22.39066 h 3.16406 3.16406 l 2.97969,0.59594 2.97969,0.59593 -0.28438,2.45094 -0.28437,2.45094 -15.23438,0.2576 -15.23437,0.2576 z m 45.9375,-26.48456 v -29.15664 l 11.95312,0.32852 11.95313,0.32852 3.69685,1.93933 3.69686,1.93933 1.80111,2.41239 1.80111,2.41239 0.70667,3.86451 0.70668,3.86452 -0.79833,4.27327 -0.79834,4.27327 -1.96963,2.7661 -1.96963,2.76609 -3.86019,1.96932 -3.86019,1.96932 -7.77961,0.48535 -7.77961,0.48535 v 11.11786 11.11785 h -3.75 -3.75 z m 23.47369,-2.26832 2.70432,-1.39845 1.12189,-3.74454 1.12189,-3.74454 -1.12189,-3.74454 -1.12189,-3.74454 -3.00341,-1.55312 -3.0034,-1.55312 -6.3356,-0.45331 -6.3356,-0.45331 v 11.51059 11.5106 l 6.63469,-0.61663 6.63469,-0.61663 z m 25.69937,30.2377 -0.4556,-1.18727 0.25064,-24.3596 0.25065,-24.35961 7.73437,-0.27229 7.73438,-0.27229 v 2.38167 2.38166 h -4.6875 -4.6875 v 20.57363 20.57364 l 4.45312,0.28574 4.45313,0.28574 0.29664,2.57812 0.29665,2.57813 h -7.59169 -7.5917 z m 21.37381,0.51408 -2.10937,-0.39472 v -1.80979 -1.8098 h 3.21321 3.2132 l 1.9044,-2.42106 1.90441,-2.42106 0.54773,-1.72573 0.54772,-1.72574 -5.66533,-13.79278 -5.66534,-13.79279 v -0.34167 -0.34167 h 2.67672 2.67671 l 4.26553,10.96418 4.26552,10.96417 1.32892,-3.2298 1.32893,-3.2298 2.72838,-7.73438 2.72837,-7.73437 h 2.59421 2.59421 v 0.48209 0.48209 l -6.17662,16.15853 -6.1766,16.15854 -1.83869,2.99847 -1.83868,2.99848 -2.06283,0.59154 -2.06283,0.59154 -1.40625,0.25513 -1.40625,0.25513 z m 26.36988,-0.69337 -0.55486,-1.44594 0.53964,-1.40625 0.53962,-1.40625 h 4.71693 4.71692 v -20.625 -20.625 h -5.15625 -5.15625 v -2.34375 -2.34375 h 7.98382 7.98381 l -0.24944,25.54687 -0.24944,25.54688 -7.27982,0.27407 -7.27982,0.27406 z"
         id="path6454"
         inkscape:connector-curvature="0" />
      <path
         style="fill:#d7d7d7;stroke-width:0.9375"
         d="m 673.12689,661.78244 v -2.71854 l 2.92969,-0.58593 2.92968,-0.58594 h 2.69532 2.69531 v -22.39066 -22.39066 l -2.10938,-0.56529 -2.10937,-0.56529 -3.51563,-0.0128 -3.51562,-0.0128 v -2.8125 -2.8125 h 15.46875 15.46875 v 2.8125 2.8125 l -3.98438,0.0128 -3.98437,0.0128 -2.10938,0.56529 -2.10937,0.56529 v 22.39066 22.39066 h 3.16406 3.16406 l 2.97969,0.59594 2.97969,0.59593 -0.28438,2.45094 -0.28437,2.45094 -15.23438,0.2576 -15.23437,0.2576 z m 45.9375,-26.48456 v -29.15664 l 11.95312,0.32852 11.95313,0.32852 3.69685,1.93933 3.69686,1.93933 1.80111,2.41239 1.80111,2.41239 0.70667,3.86451 0.70668,3.86452 -0.79833,4.27327 -0.79834,4.27327 -1.96963,2.7661 -1.96963,2.76609 -3.86019,1.96932 -3.86019,1.96932 -7.77961,0.48535 -7.77961,0.48535 v 11.11786 11.11785 h -3.75 -3.75 z m 23.47369,-2.26832 2.70432,-1.39845 1.12189,-3.74454 1.12189,-3.74454 -1.12189,-3.74454 -1.12189,-3.74454 -3.00341,-1.55312 -3.0034,-1.55312 -6.3356,-0.45331 -6.3356,-0.45331 v 11.51059 11.5106 l 6.63469,-0.61663 6.63469,-0.61663 z m 26.21381,5.68315 v -25.82068 h 7.5 7.5 v 2.34375 2.34375 h -4.6875 -4.6875 v 20.57363 20.57364 l 4.45312,0.28574 4.45313,0.28574 v 2.34375 2.34375 l -7.26563,0.27381 -7.26562,0.27381 z m 20.85937,25.06863 -2.10937,-0.39472 v -1.80979 -1.8098 h 3.21321 3.2132 l 1.9044,-2.42106 1.90441,-2.42106 0.54773,-1.72573 0.54772,-1.72574 -5.66533,-13.79278 -5.66534,-13.79279 v -0.34167 -0.34167 h 2.67672 2.67671 l 4.26553,10.96418 4.26552,10.96417 1.32892,-3.2298 1.32893,-3.2298 2.72838,-7.73438 2.72837,-7.73437 h 2.59421 2.59421 v 0.48209 0.48209 l -6.17662,16.15853 -6.1766,16.15854 -1.83869,2.99847 -1.83868,2.99848 -2.06283,0.59154 -2.06283,0.59154 -1.40625,0.25513 -1.40625,0.25513 z m 26.36988,-0.69337 -0.55486,-1.44594 0.53964,-1.40625 0.53962,-1.40625 h 4.71693 4.71692 v -20.625 -20.625 h -5.15625 -5.15625 v -2.38166 -2.38167 l 7.73437,0.27229 7.73438,0.27229 v 25.3125 25.3125 l -7.27982,0.27407 -7.27982,0.27406 z"
         id="path6452"
         inkscape:connector-curvature="0" />
      <path
         style="fill:#d6d6d6;stroke-width:0.9375"
         d="m 673.12689,661.71181 v -2.78917 l 5.625,-0.6364 5.625,-0.6364 v -22.2786 -22.27861 l -1.48293,-0.56905 -1.48292,-0.56905 h -4.14208 -4.14207 v -2.83572 -2.83573 l 15.23437,0.2576 15.23438,0.2576 v 2.34375 2.34375 l -3.75,0.24988 -3.75,0.24989 -2.10938,0.4711 -2.10937,0.4711 v 22.48214 22.48214 l 2.57812,0.0103 2.57813,0.0103 3.56528,0.58916 3.56528,0.58916 -0.28403,2.4474 -0.28403,2.4474 -15.23438,0.2576 -15.23437,0.2576 z m 45.9375,-26.31978 v -29.0625 l 10.07812,0.005 10.07813,0.005 3.75,1.03866 3.75,1.03867 2.59227,1.84251 2.59227,1.84252 1.44124,2.78704 1.44123,2.78704 0.0262,5.46635 0.0262,5.46634 -1.9487,3.81976 -1.9487,3.81976 -4.24832,2.48969 -4.24833,2.48968 -7.94075,0.49541 -7.94076,0.4954 v 11.11786 11.11785 h -3.75 -3.75 z m 23.26553,-2.25482 2.78119,-1.43821 1.03914,-2.98088 1.03914,-2.98088 -0.004,-2.43823 -0.004,-2.43823 -1.82273,-2.98934 -1.82273,-2.98935 -3.56439,-0.9898 -3.56439,-0.9898 -4.92188,-0.005 -4.92187,-0.005 v 11.38597 11.38597 l 6.49218,-0.54428 6.49217,-0.54428 z m 26.42197,5.5755 v -25.82068 h 7.5 7.5 v 2.34375 2.34375 h -4.6875 -4.6875 v 20.57363 20.57364 l 4.45312,0.28574 4.45313,0.28574 v 2.34375 2.34375 l -7.26563,0.27381 -7.26562,0.27381 z m 47.22925,24.37526 -0.55486,-1.44594 0.53964,-1.40625 0.53962,-1.40625 h 4.71693 4.71692 v -20.625 -20.625 h -5.15625 -5.15625 v -2.38166 -2.38167 l 7.73437,0.27229 7.73438,0.27229 v 25.3125 25.3125 l -7.27982,0.27407 -7.27982,0.27406 z m -27.85425,-0.19594 -0.625,-0.625 v -1.25 -1.25 h 3.24473 3.24473 l 1.83314,-1.96765 1.83314,-1.96764 0.56698,-2.25903 0.56698,-2.25902 -5.28694,-12.88271 -5.28695,-12.8827 -0.45821,-1.17188 -0.45821,-1.17187 2.67843,9.1e-4 2.67843,9.2e-4 4.20774,10.74447 4.20775,10.74447 0.64487,-0.66726 0.64486,-0.66726 3.58685,-9.84375 3.58686,-9.84375 2.57615,-0.29665 2.57617,-0.29664 v 0.44354 0.44355 l -6.53873,17.12074 -6.53873,17.12074 -2.54292,2.65423 -2.54291,2.65424 h -3.8871 -3.88711 z"
         id="path6450"
         inkscape:connector-curvature="0" />
      <path
         style="fill:#cbcbcb;stroke-width:0.9375"
         d="m 673.12689,661.71181 v -2.78917 l 5.625,-0.6364 5.625,-0.6364 v -22.2786 -22.27861 l -1.48293,-0.56905 -1.48292,-0.56905 h -4.14208 -4.14207 v -2.83572 -2.83573 l 15.23437,0.2576 15.23438,0.2576 v 2.34375 2.34375 l -3.75,0.24988 -3.75,0.24989 -2.10938,0.4711 -2.10937,0.4711 v 22.48214 22.48214 l 2.57812,0.0103 2.57813,0.0103 3.56528,0.58916 3.56528,0.58916 -0.28403,2.4474 -0.28403,2.4474 -15.23438,0.2576 -15.23437,0.2576 z m 45.9375,-26.31978 v -29.0625 l 10.07812,0.005 10.07813,0.005 3.75,1.03866 3.75,1.03867 2.59227,1.84251 2.59227,1.84252 1.44124,2.78704 1.44123,2.78704 0.0262,5.46635 0.0262,5.46634 -1.9487,3.81976 -1.9487,3.81976 -4.24832,2.48969 -4.24833,2.48968 -7.94075,0.49541 -7.94076,0.4954 v 11.11786 11.11785 h -3.75 -3.75 z m 23.26553,-2.25482 2.78119,-1.43821 1.03914,-2.98088 1.03914,-2.98088 -0.004,-2.43823 -0.004,-2.43823 -1.82273,-2.98934 -1.82273,-2.98935 -3.56439,-0.9898 -3.56439,-0.9898 -4.92188,-0.005 -4.92187,-0.005 v 11.38597 11.38597 l 6.49218,-0.54428 6.49217,-0.54428 z m 26.42197,5.06732 v -25.3125 h 7.5 7.5 v 2.34375 2.34375 h -5.17418 -5.17419 l 0.25231,20.85937 0.25231,20.85938 4.92187,0.28337 4.92188,0.28337 v 1.826 1.82601 h -7.5 -7.5 z m 19.375,24.6875 -0.625,-0.625 v -1.25 -1.25 h 3.24473 3.24473 l 1.83314,-1.96765 1.83314,-1.96764 0.56698,-2.25903 0.56698,-2.25902 -5.28694,-12.88271 -5.28695,-12.8827 -0.45821,-1.17188 -0.45821,-1.17187 2.67843,9.1e-4 2.67843,9.2e-4 4.20774,10.74447 4.20775,10.74447 0.64487,-0.66726 0.64486,-0.66726 3.58685,-9.84375 3.58686,-9.84375 2.57615,-0.29665 2.57617,-0.29664 v 0.44354 0.44355 l -6.53873,17.12074 -6.53873,17.12074 -2.54292,2.65423 -2.54291,2.65424 h -3.8871 -3.88711 z m 27.5,-1.20101 v -1.826 l 4.92187,-0.28337 4.92188,-0.28337 0.25231,-20.85938 0.25231,-20.85937 h -5.17419 -5.17418 v -2.38166 -2.38167 l 7.73437,0.27229 7.73438,0.27229 0.24968,25.07812 0.2497,25.07813 h -7.98407 -7.98406 z"
         id="path6448"
         inkscape:connector-curvature="0" />
      <path
         style="fill:#c7c7c7;stroke-width:0.9375"
         d="m 673.12689,661.71181 v -2.78917 l 5.625,-0.6364 5.625,-0.6364 v -22.2786 -22.27861 l -1.48293,-0.56905 -1.48292,-0.56905 h -4.14208 -4.14207 v -2.83572 -2.83573 l 15.23437,0.2576 15.23438,0.2576 v 2.34375 2.34375 l -3.75,0.24988 -3.75,0.24989 -2.10938,0.4711 -2.10937,0.4711 v 22.48214 22.48214 l 2.57812,0.0103 2.57813,0.0103 3.56528,0.58916 3.56528,0.58916 -0.28403,2.4474 -0.28403,2.4474 -15.23438,0.2576 -15.23437,0.2576 z m 45.9375,-26.31978 v -29.0625 l 10.07812,0.005 10.07813,0.005 3.75,1.03866 3.75,1.03867 2.59227,1.84251 2.59227,1.84252 1.44124,2.78704 1.44123,2.78704 0.0262,5.46635 0.0262,5.46634 -1.9487,3.81976 -1.9487,3.81976 -4.24832,2.48969 -4.24833,2.48968 -7.94075,0.49541 -7.94076,0.4954 v 11.11786 11.11785 h -3.75 -3.75 z m 23.26553,-2.25482 2.78119,-1.43821 1.03914,-2.98088 1.03914,-2.98088 -0.004,-2.43823 -0.004,-2.43823 -1.82273,-2.98934 -1.82273,-2.98935 -3.56439,-0.9898 -3.56439,-0.9898 -4.92188,-0.005 -4.92187,-0.005 v 11.38597 11.38597 l 6.49218,-0.54428 6.49217,-0.54428 z m 26.42197,5.02788 v -25.35193 l 7.26562,0.27381 7.26563,0.27381 0.29958,2.10937 0.29958,2.10938 h -5.22146 -5.22145 v 21.09375 21.09375 h 5.15625 5.15625 v 1.875 1.875 h -7.5 -7.5 z m 19.375,24.72694 -0.625,-0.625 v -1.25 -1.25 h 3.24473 3.24473 l 1.83314,-1.96765 1.83314,-1.96764 0.56698,-2.25903 0.56698,-2.25902 -5.28694,-12.88271 -5.28695,-12.8827 -0.45821,-1.17188 -0.45821,-1.17187 2.67843,9.1e-4 2.67843,9.2e-4 4.20774,10.74447 4.20775,10.74447 0.64487,-0.66726 0.64486,-0.66726 3.58685,-9.84375 3.58686,-9.84375 2.57615,-0.29665 2.57617,-0.29664 v 0.44354 0.44355 l -6.53873,17.12074 -6.53873,17.12074 -2.54292,2.65423 -2.54291,2.65424 h -3.8871 -3.88711 z m 27.5,-1.25 v -1.875 h 5.15625 5.15625 v -21.09375 -21.09375 h -5.22145 -5.22146 l 0.29958,-2.10938 0.29958,-2.10937 7.26562,-0.27381 7.26563,-0.27381 v 25.35193 25.35194 h -7.5 -7.5 z"
         id="path6446"
         inkscape:connector-curvature="0" />
      <path
         style="fill:#b7b7b7;stroke-width:0.9375"
         d="m 673.77479,663.85243 -0.6479,-0.6479 v -2.14095 -2.14094 l 5.64139,-0.63826 5.64139,-0.63825 -0.25077,-22.61142 -0.25076,-22.61143 -5.39063,-0.28116 -5.39062,-0.28116 v -2.78894 -2.78894 l 15.23437,0.2576 15.23438,0.2576 v 2.34375 2.34375 l -5.625,0.46875 -5.625,0.46875 -0.25066,22.5676 -0.25067,22.5676 5.87567,0.8699 5.87566,0.8699 v 2.34375 2.34375 l -14.58648,0.25727 -14.58648,0.25727 z m 45.95903,0.0215 -0.66943,-0.66943 v -28.54835 -28.54836 l 11.96617,0.37284 11.96617,0.37283 3.68381,1.91172 3.68381,1.91173 1.89919,2.54376 1.8992,2.54377 0.36765,6.50652 0.36765,6.50653 -2.43482,4.15471 -2.43483,4.15471 -4.24408,2.05452 -4.24408,2.05453 -7.45931,0.51127 -7.45931,0.51127 -0.26299,10.88363 -0.26298,10.88362 -2.84619,0.27881 -2.8462,0.2788 z m 22.50517,-30.68973 3.00341,-1.55312 1.13122,-3.7757 1.13123,-3.7757 -0.86085,-3.39463 -0.86086,-3.39463 -2.51622,-1.86729 -2.51621,-1.86728 -7.09316,-0.45521 -7.09316,-0.45522 v 11.49926 11.49926 l 6.3356,-0.45331 6.3356,-0.45331 z m 26.5129,4.98086 v -25.35193 l 7.26562,0.27381 7.26563,0.27381 0.29958,2.10937 0.29958,2.10938 h -5.22146 -5.22145 v 21.09375 21.09375 h 5.15625 5.15625 v 1.875 1.875 h -7.5 -7.5 z m 19.6875,23.47694 v -1.875 h 2.40538 2.40538 l 1.78032,-0.9528 1.78032,-0.95279 1.02756,-3.50033 1.02757,-3.50033 -5.68201,-13.58933 -5.68202,-13.58932 v -0.2388 -0.2388 h 2.31077 2.31076 l 1.10092,2.0571 1.10093,2.0571 3.60311,9.42727 3.60311,9.42728 0.55373,-1.875 0.55372,-1.875 3.44878,-9.375 3.44879,-9.375 2.57644,-0.29665 2.57644,-0.29664 v 0.41973 0.41973 l -6.60848,17.21735 -6.60846,17.21735 -2.47318,2.58144 -2.47317,2.58144 h -4.04336 -4.04335 z m 27.1875,0 v -1.875 h 5.15625 5.15625 V 638.67325 617.5795 h -5.22145 -5.22146 l 0.29958,-2.10938 0.29958,-2.10937 7.26562,-0.27381 7.26563,-0.27381 v 25.35193 25.35194 h -7.5 -7.5 z"
         id="path6444"
         inkscape:connector-curvature="0" />
      <path
         style="fill:#a7a7a7;stroke-width:0.9375"
         d="m 673.12689,661.29437 v -2.22265 l 5.625,-0.6364 5.625,-0.6364 v -22.92219 -22.9222 h -5.625 -5.625 v -2.8125 -2.8125 h 15 15 v 2.8125 2.8125 h -5.625 -5.625 v 22.9222 22.92219 l 5.625,0.6364 5.625,0.6364 v 2.22265 2.22266 h -15 -15 z m 45.9375,-26.49552 v -28.71819 l 12.02678,0.43429 12.02678,0.43428 4.05186,2.26827 4.05186,2.26828 1.73386,3.26662 1.73386,3.26663 v 4.96661 4.96661 l -1.29079,3.01677 -1.29078,3.01676 -2.69359,2.51848 -2.69359,2.51849 -2.75151,1.03985 -2.7515,1.03986 -7.32662,0.56499 -7.32662,0.56499 v 10.64229 10.6423 h -3.75 -3.75 z m 20.90814,-0.40708 3.56439,-0.9898 1.87842,-2.98935 1.87843,-2.98934 -0.38424,-4.46262 -0.38423,-4.46263 -1.68349,-1.86024 -1.6835,-1.86024 -3.37508,-0.93753 -3.37509,-0.93753 -4.92188,-0.005 -4.92187,-0.005 v 11.25 11.25 l 4.92187,-0.005 4.92188,-0.005 3.56439,-0.9898 z m 28.77936,3.77332 v -25.35193 l 7.26562,0.27381 7.26563,0.27381 0.29958,2.10937 0.29958,2.10938 h -5.22146 -5.22145 v 21.09375 21.09375 h 5.15625 5.15625 v 1.875 1.875 h -7.5 -7.5 z m 19.6875,23.47694 v -1.875 h 2.8125 2.8125 l 1.85115,-1.85115 1.85116,-1.85116 0.60288,-2.40208 0.60289,-2.40208 -5.27943,-12.85614 -5.27943,-12.85614 0.0129,-1.23708 0.0129,-1.23708 2.08363,0.29958 2.08361,0.29958 4.42033,11.23065 4.42034,11.23065 0.84348,-2.3244 0.84349,-2.3244 3.19943,-8.78521 3.19944,-8.78521 1.17188,-0.45572 1.17187,-0.45571 1.34073,0.51448 1.34073,0.51449 -5.15499,13.41394 -5.15499,13.41394 -1.85653,4.20707 -1.85653,4.20707 -1.99263,2.12106 -1.99272,2.12105 h -4.05533 -4.05533 z m 27.1875,0 v -1.875 h 5.15625 5.15625 v -21.09375 -21.09375 h -5.22145 -5.22146 l 0.29958,-2.10938 0.29958,-2.10937 7.26562,-0.27381 7.26563,-0.27381 v 25.35193 25.35194 h -7.5 -7.5 z"
         id="path6442"
         inkscape:connector-curvature="0" />
      <path
         style="fill:#a0a0a0;stroke-width:0.9375"
         d="m 673.12689,661.29437 v -2.22265 l 5.625,-0.6364 5.625,-0.6364 v -22.92219 -22.9222 h -5.625 -5.625 v -2.8125 -2.8125 h 15 15 v 2.8125 2.8125 h -5.625 -5.625 v 22.9222 22.92219 l 5.625,0.6364 5.625,0.6364 v 2.22265 2.22266 h -15 -15 z m 45.9375,-26.49552 v -28.71819 l 12.02678,0.43429 12.02678,0.43428 4.05186,2.26827 4.05186,2.26828 1.73386,3.26662 1.73386,3.26663 v 4.96661 4.96661 l -1.29079,3.01677 -1.29078,3.01676 -2.69359,2.51848 -2.69359,2.51849 -2.75151,1.03985 -2.7515,1.03986 -7.32662,0.56499 -7.32662,0.56499 v 10.64229 10.6423 h -3.75 -3.75 z m 20.90814,-0.40708 3.56439,-0.9898 1.87842,-2.98935 1.87843,-2.98934 -0.38424,-4.46262 -0.38423,-4.46263 -1.68349,-1.86024 -1.6835,-1.86024 -3.37508,-0.93753 -3.37509,-0.93753 -4.92188,-0.005 -4.92187,-0.005 v 11.25 11.25 l 4.92187,-0.005 4.92188,-0.005 3.56439,-0.9898 z m 28.77936,3.77332 v -25.35193 l 7.26562,0.27381 7.26563,0.27381 0.29958,2.10937 0.29958,2.10938 h -5.22146 -5.22145 v 21.09375 21.09375 h 5.15625 5.15625 v 1.875 1.875 h -7.5 -7.5 z m 19.6875,23.47694 v -1.875 h 2.8125 2.8125 l 1.85115,-1.85115 1.85116,-1.85116 0.60288,-2.40208 0.60289,-2.40208 -5.27943,-12.85614 -5.27943,-12.85614 0.0129,-1.23708 0.0129,-1.23708 2.08363,0.29958 2.08361,0.29958 4.42033,11.23065 4.42034,11.23065 0.84348,-2.3244 0.84349,-2.3244 3.19943,-8.78521 3.19944,-8.78521 1.17188,-0.45572 1.17187,-0.45571 1.34073,0.51448 1.34073,0.51449 -5.15499,13.41394 -5.15499,13.41394 -1.85653,4.20707 -1.85653,4.20707 -1.99263,2.12106 -1.99272,2.12105 h -4.05533 -4.05533 z m 28.125,0 v -1.875 h 4.6875 4.6875 v -21.09375 -21.09375 h -4.6875 -4.6875 v -2.34375 -2.34375 h 7.03125 7.03125 v 25.3125 25.3125 h -7.03125 -7.03125 z"
         id="path6440"
         inkscape:connector-curvature="0" />
      <path
         style="fill:#969696;stroke-width:0.9375"
         d="m 673.12689,661.29437 v -2.22265 l 5.625,-0.6364 5.625,-0.6364 v -22.92219 -22.9222 h -5.625 -5.625 v -2.8125 -2.8125 h 15 15 v 2.8125 2.8125 h -5.625 -5.625 v 22.9222 22.92219 l 5.625,0.6364 5.625,0.6364 v 2.22265 2.22266 h -15 -15 z m 45.9375,-26.49552 v -28.71819 l 12.02678,0.43429 12.02678,0.43428 4.05186,2.26827 4.05186,2.26828 1.73386,3.26662 1.73386,3.26663 v 4.96661 4.96661 l -1.29079,3.01677 -1.29078,3.01676 -2.69359,2.51848 -2.69359,2.51849 -2.75151,1.03985 -2.7515,1.03986 -7.32662,0.56499 -7.32662,0.56499 v 10.64229 10.6423 h -3.75 -3.75 z m 20.90814,-0.40708 3.56439,-0.9898 1.87842,-2.98935 1.87843,-2.98934 -0.38424,-4.46262 -0.38423,-4.46263 -1.68349,-1.86024 -1.6835,-1.86024 -3.37508,-0.93753 -3.37509,-0.93753 -4.92188,-0.005 -4.92187,-0.005 v 11.25 11.25 l 4.92187,-0.005 4.92188,-0.005 3.56439,-0.9898 z m 28.77936,4.28151 v -24.84375 h 7.56874 7.56874 l -0.31189,1.64062 -0.3119,1.64063 -4.9131,0.28337 -4.91309,0.28337 v 21.04475 21.04476 h 5.15625 5.15625 v 1.875 1.875 h -7.5 -7.5 z m 19.6875,22.96875 v -1.875 h 2.8125 2.8125 l 1.85115,-1.85115 1.85116,-1.85116 0.60288,-2.40208 0.60289,-2.40208 -5.27943,-12.85614 -5.27943,-12.85614 0.0129,-1.23708 0.0129,-1.23708 2.08363,0.29958 2.08361,0.29958 4.42033,11.23065 4.42034,11.23065 0.84348,-2.3244 0.84349,-2.3244 3.19943,-8.78521 3.19944,-8.78521 1.17188,-0.45572 1.17187,-0.45571 1.34073,0.51448 1.34073,0.51449 -5.15499,13.41394 -5.15499,13.41394 -1.85653,4.20707 -1.85653,4.20707 -1.99263,2.12106 -1.99272,2.12105 h -4.05533 -4.05533 z m 28.125,0 v -1.875 h 4.6875 4.6875 v -21.09375 -21.09375 h -4.6875 -4.6875 v -1.875 -1.875 h 7.03125 7.03125 v 24.84375 24.84375 h -7.03125 -7.03125 z"
         id="path6438"
         inkscape:connector-curvature="0" />
      <path
         style="fill:#8d8d8d;stroke-width:0.9375"
         d="m 673.12689,661.29437 v -2.22265 l 5.625,-0.6364 5.625,-0.6364 v -22.92219 -22.9222 h -5.625 -5.625 v -2.8125 -2.8125 h 15 15 v 2.8125 2.8125 h -5.625 -5.625 v 22.9222 22.92219 l 5.625,0.6364 5.625,0.6364 v 2.22265 2.22266 h -15 -15 z m 45.9375,-26.49552 v -28.71819 l 12.02678,0.43429 12.02678,0.43428 4.05186,2.26827 4.05186,2.26828 1.73386,3.26662 1.73386,3.26663 v 4.96661 4.96661 l -1.29079,3.01677 -1.29078,3.01676 -2.69359,2.51848 -2.69359,2.51849 -2.75151,1.03985 -2.7515,1.03986 -7.32662,0.56499 -7.32662,0.56499 v 10.64229 10.6423 h -3.75 -3.75 z m 20.90814,-0.40708 3.56439,-0.9898 1.87842,-2.98935 1.87843,-2.98934 -0.38424,-4.46262 -0.38423,-4.46263 -1.68349,-1.86024 -1.6835,-1.86024 -3.37508,-0.93753 -3.37509,-0.93753 -4.92188,-0.005 -4.92187,-0.005 v 11.25 11.25 l 4.92187,-0.005 4.92188,-0.005 3.56439,-0.9898 z m 28.77936,4.28151 v -24.84375 h 7.03125 7.03125 v 1.875 1.875 h -4.6875 -4.6875 v 21.09375 21.09375 h 4.6875 4.6875 v 1.875 1.875 h -7.03125 -7.03125 z m 19.6875,22.96875 v -1.875 h 2.8125 2.8125 l 1.85115,-1.85115 1.85116,-1.85116 0.60288,-2.40208 0.60289,-2.40208 -5.27943,-12.85614 -5.27943,-12.85614 0.0129,-1.23708 0.0129,-1.23708 2.08363,0.29958 2.08361,0.29958 4.42033,11.23065 4.42034,11.23065 0.84348,-2.3244 0.84349,-2.3244 3.19943,-8.78521 3.19944,-8.78521 1.17188,-0.45572 1.17187,-0.45571 1.34073,0.51448 1.34073,0.51449 -5.15499,13.41394 -5.15499,13.41394 -1.85653,4.20707 -1.85653,4.20707 -1.99263,2.12106 -1.99272,2.12105 h -4.05533 -4.05533 z m 28.125,0 v -1.875 h 4.6875 4.6875 v -21.09375 -21.09375 h -4.6875 -4.6875 v -1.875 -1.875 h 7.03125 7.03125 v 24.84375 24.84375 h -7.03125 -7.03125 z"
         id="path6436"
         inkscape:connector-curvature="0" />
      <path
         style="fill:#797979;stroke-width:0.9375"
         d="m 673.12689,661.17328 v -2.34375 l 3.51562,-0.0128 3.51563,-0.0128 2.10937,-0.56529 2.10938,-0.56529 v -22.85941 -22.85941 h -5.625 -5.625 v -2.8125 -2.8125 h 15 15 v 2.8125 2.8125 h -5.625 -5.625 v 22.85941 22.85941 l 2.10937,0.56529 2.10938,0.56529 3.51562,0.0128 3.51563,0.0128 v 2.34375 2.34375 h -15 -15 z m 45.9375,-26.38639 v -28.73015 l 11.68378,0.50459 11.68379,0.50458 4.19736,2.03191 4.19737,2.03191 1.93135,3.98964 1.93135,3.98964 v 4.42162 4.42162 l -1.29079,3.01677 -1.29078,3.01676 -2.69359,2.45056 -2.69359,2.45057 -3.08437,1.02936 -3.08438,1.02937 -6.99375,0.63375 -6.99375,0.63376 v 10.65194 10.65194 h -3.75 -3.75 z m 20.71884,-0.34285 3.37508,-0.93753 1.6835,-1.86024 1.68349,-1.86024 0.44986,-4.68175 0.44985,-4.68176 -1.59698,-2.4373 -1.59698,-2.4373 -3.17822,-1.32795 -3.17822,-1.32794 h -5.65511 -5.65511 v 11.25 11.25 l 4.92187,-0.005 4.92188,-0.005 3.37509,-0.93753 z m 28.96866,4.22924 v -24.84375 h 7.03125 7.03125 v 1.875 1.875 h -4.6875 -4.6875 v 21.09375 21.09375 h 4.6875 4.6875 v 1.875 1.875 h -7.03125 -7.03125 z m 19.6875,22.96875 v -1.875 h 3.29503 3.29503 l 1.85771,-3.04688 1.85772,-3.04687 0.004,-1.65564 0.003,-1.65564 -5.15625,-12.58487 -5.15625,-12.58486 v -0.52512 -0.52512 h 2.21364 2.21364 l 2.12084,5.39062 2.12084,5.39063 2.17721,6.06844 2.17722,6.06845 0.46168,-1.38095 0.46167,-1.38094 3.5735,-10.07695 3.57351,-10.07695 2.10937,-10e-4 2.10938,-10e-4 v 0.80039 0.80039 l -5.60534,14.67689 -5.60534,14.6769 -1.42056,2.74706 -1.42055,2.74705 -2.08895,1.46316 -2.08896,1.46316 h -3.5414 -3.5414 z m 28.125,0 v -1.875 h 4.6875 4.6875 v -21.09375 -21.09375 h -4.6875 -4.6875 v -1.875 -1.875 h 7.03125 7.03125 v 24.84375 24.84375 h -7.03125 -7.03125 z"
         id="path6434"
         inkscape:connector-curvature="0" />
      <path
         style="fill:#777;stroke-width:0.9375"
         d="m 673.12689,661.17328 v -2.34375 l 3.51562,-0.0128 3.51563,-0.0128 2.10937,-0.56529 2.10938,-0.56529 v -22.85941 -22.85941 h -5.625 -5.625 v -2.8125 -2.8125 h 15 15 v 2.8125 2.8125 h -5.625 -5.625 v 22.85941 22.85941 l 2.10937,0.56529 2.10938,0.56529 3.51562,0.0128 3.51563,0.0128 v 2.34375 2.34375 h -15 -15 z m 45.9375,-26.38639 v -28.73015 l 11.68378,0.50459 11.68379,0.50458 4.19736,2.03191 4.19737,2.03191 1.93135,3.98964 1.93135,3.98964 v 4.42162 4.42162 l -1.29079,3.01677 -1.29078,3.01676 -2.69359,2.45056 -2.69359,2.45057 -3.08437,1.02936 -3.08438,1.02937 -6.99375,0.63375 -6.99375,0.63376 v 10.65194 10.65194 h -3.75 -3.75 z m 20.71884,-0.34285 3.37508,-0.93753 1.6835,-1.86024 1.68349,-1.86024 0.44986,-4.68175 0.44985,-4.68176 -1.59698,-2.4373 -1.59698,-2.4373 -3.17822,-1.32795 -3.17822,-1.32794 h -5.65511 -5.65511 v 11.25 11.25 l 4.92187,-0.005 4.92188,-0.005 3.37509,-0.93753 z m 28.96866,4.22924 v -24.84375 h 7.03125 7.03125 v 1.40625 1.40625 h -4.6875 -4.6875 v 21.5625 21.5625 h 4.6875 4.6875 v 1.875 1.875 h -7.03125 -7.03125 z m 19.6875,22.96875 v -1.875 h 3.29503 3.29503 l 1.85771,-3.04688 1.85772,-3.04687 0.004,-1.65564 0.003,-1.65564 -5.15625,-12.58487 -5.15625,-12.58486 v -0.52512 -0.52512 h 2.21364 2.21364 l 2.12084,5.39062 2.12084,5.39063 2.17721,6.06844 2.17722,6.06845 0.46168,-1.38095 0.46167,-1.38094 3.5735,-10.07695 3.57351,-10.07695 2.10937,-10e-4 2.10938,-10e-4 v 0.80039 0.80039 l -5.60534,14.67689 -5.60534,14.6769 -1.42056,2.74706 -1.42055,2.74705 -2.08895,1.46316 -2.08896,1.46316 h -3.5414 -3.5414 z m 28.125,0 v -1.875 h 4.6875 4.6875 v -21.5625 -21.5625 h -4.6875 -4.6875 v -1.40625 -1.40625 h 7.03125 7.03125 v 24.84375 24.84375 h -7.03125 -7.03125 z"
         id="path6432"
         inkscape:connector-curvature="0" />
      <path
         style="fill:#686868;stroke-width:0.9375"
         d="m 673.12689,661.17328 v -2.34375 h 4.14207 4.14208 l 1.48292,-0.56905 1.48293,-0.56905 V 634.86976 612.0481 l -5.39063,-0.28116 -5.39062,-0.28116 -0.29665,-2.57813 -0.29664,-2.57812 h 15.12454 15.12454 l -0.29664,2.57812 -0.29665,2.57813 -5.39063,0.28116 -5.39062,0.28116 v 22.82166 22.82167 l 1.48293,0.56905 1.48292,0.56905 h 4.14208 4.14207 v 2.34375 2.34375 h -15 -15 z m 45.9375,-26.39248 v -28.73622 l 11.59749,0.54797 11.59749,0.54798 3.16813,1.34868 3.16814,1.34867 2.04693,2.2302 2.04692,2.2302 0.99995,2.63916 0.99995,2.63915 v 4.18783 4.18783 l -1.28543,3.01677 -1.28542,3.01676 -2.243,2.06463 -2.24299,2.06463 -3.26845,1.34049 -3.26846,1.34049 -7.26563,0.65924 -7.26562,0.65924 v 10.70127 10.70126 h -3.75 -3.75 z m 21.93884,-0.69599 3.12861,-1.30722 1.52878,-2.18263 1.52877,-2.18263 v -4.46411 -4.46411 l -2.65665,-2.9733 -2.65665,-2.97331 -7.65585,-0.44319 -7.65585,-0.44319 v 11.37046 11.37045 h 5.65511 5.65511 z m 27.74866,4.58847 v -24.84375 h 7.03125 7.03125 v 1.40625 1.40625 h -4.6875 -4.6875 v 21.5625 21.5625 h 4.6875 4.6875 v 1.875 1.875 h -7.03125 -7.03125 z m 19.6875,22.96875 v -1.875 h 3.29503 3.29503 l 1.85771,-3.04688 1.85772,-3.04687 0.004,-1.69699 0.003,-1.697 -5.15625,-12.58486 -5.15625,-12.58487 v -0.48377 -0.48376 l 2.10937,0.006 2.10938,0.006 3.98437,10.09177 3.98438,10.09176 v 1.33978 1.33979 l 0.7996,-0.89063 0.7996,-0.89062 3.65254,-10.54688 3.65255,-10.54687 h 2.11035 2.11036 v 0.65411 0.65412 l -5.7248,15.04901 -5.7248,15.04901 -1.30109,2.52121 -1.3011,2.52122 -2.08895,1.46316 -2.08896,1.46325 h -3.5414 -3.5414 z m 28.125,0 v -1.875 h 4.6875 4.6875 v -21.5625 -21.5625 h -4.6875 -4.6875 v -1.40625 -1.40625 h 7.03125 7.03125 v 24.84375 24.84375 h -7.03125 -7.03125 z"
         id="path6430"
         inkscape:connector-curvature="0" />
      <path
         style="fill:#686868;stroke-width:0.9375"
         d="m 673.12689,661.17328 v -2.34375 h 4.14207 4.14208 l 1.48292,-0.56905 1.48293,-0.56905 V 634.86976 612.0481 l -5.39063,-0.28116 -5.39062,-0.28116 -0.29665,-2.57813 -0.29664,-2.57812 h 15.12454 15.12454 l -0.29664,2.57812 -0.29665,2.57813 -5.39063,0.28116 -5.39062,0.28116 v 22.82166 22.82167 l 1.48293,0.56905 1.48292,0.56905 h 4.14208 4.14207 v 2.34375 2.34375 h -15 -15 z m 45.9375,-26.39248 v -28.73622 l 11.59749,0.54797 11.59749,0.54798 3.16813,1.34868 3.16814,1.34867 2.04693,2.2302 2.04692,2.2302 0.99995,2.63916 0.99995,2.63915 v 4.18783 4.18783 l -1.28543,3.01677 -1.28542,3.01676 -2.243,2.06463 -2.24299,2.06463 -3.26845,1.34049 -3.26846,1.34049 -7.26563,0.65924 -7.26562,0.65924 v 10.70127 10.70126 h -3.75 -3.75 z m 21.93884,-0.69599 3.12861,-1.30722 1.52878,-2.18263 1.52877,-2.18263 v -4.46411 -4.46411 l -2.65665,-2.9733 -2.65665,-2.97331 -7.65585,-0.44319 -7.65585,-0.44319 v 11.37046 11.37045 h 5.65511 5.65511 z m 47.43616,27.55722 v -1.875 h 3.29503 3.29503 l 1.85771,-3.04688 1.85772,-3.04687 0.004,-1.69699 0.003,-1.697 -5.15625,-12.58486 -5.15625,-12.58487 v -0.48377 -0.48376 l 2.10937,0.006 2.10938,0.006 3.98437,10.09177 3.98438,10.09176 v 1.33978 1.33979 l 0.7996,-0.89063 0.7996,-0.89062 3.65254,-10.54688 3.65255,-10.54687 h 2.11035 2.11036 v 0.65411 0.65412 l -5.7248,15.04901 -5.7248,15.04901 -1.30109,2.52121 -1.3011,2.52122 -2.08895,1.46316 -2.08896,1.46325 h -3.5414 -3.5414 z"
         id="path6428"
         inkscape:connector-curvature="0" />
      <path
         style="fill:#5c5c5c;stroke-width:0.9375"
         d="m 673.12689,661.22006 v -2.29696 l 5.39062,-0.28116 5.39063,-0.28116 0.25075,-23.20313 0.25076,-23.20312 h -4.15846 -4.15845 l -1.48292,-0.56905 -1.48293,-0.56905 v -2.24345 -2.24345 h 15.06227 15.06227 l -0.29664,2.57812 -0.29665,2.57813 -5.39063,0.28116 -5.39062,0.28116 v 22.82166 22.82167 l 1.48293,0.56905 1.48292,0.56905 h 4.14208 4.14207 v 2.34375 2.34375 h -15 -15 z m 46.15813,-26.06241 0.24812,-28.35937 11.015,0.16147 11.01501,0.16146 3.23501,1.06765 3.23501,1.06765 2.81312,3.20397 2.81312,3.20396 0.63267,3.37243 0.63267,3.37242 -0.58894,4.2968 -0.58895,4.29679 -2.46678,3.23412 -2.46678,3.23412 -3.85883,1.75236 -3.85883,1.75237 -7.26563,0.0206 -7.26562,0.0206 v 11.25 11.25 h -3.76375 -3.76374 z m 21.71821,-1.07284 3.12861,-1.30722 1.52878,-2.18263 1.52877,-2.18263 v -4.46411 -4.46411 l -2.72587,-3.05078 -2.72587,-3.05078 -7.58663,-0.34453 -7.58663,-0.34452 v 11.34926 11.34927 h 5.65511 5.65511 z m 47.43616,27.61381 v -1.8184 l 3.5037,-0.29097 3.50369,-0.29097 2.04338,-3.75 2.04338,-3.75 -5.08156,-12.1875 -5.08155,-12.1875 -0.52869,-1.64063 -0.52871,-1.64062 h 2.29759 2.29759 l 0.48815,1.64062 0.48817,1.64063 3.77581,9.83905 3.77582,9.83905 0.85667,-2.33905 0.85668,-2.33905 3.19181,-9.13887 3.19182,-9.13887 2.10937,-0.002 2.10938,-0.002 -0.004,0.70312 -0.004,0.70313 -6.51804,16.875 -6.51805,16.875 -2.437,2.10937 -2.43699,2.10938 h -3.69772 -3.69773 v -1.81841 z"
         id="path6426"
         inkscape:connector-curvature="0" />
      <path
         style="fill:#434343;stroke-width:0.9375"
         d="m 673.12689,661.17328 v -2.34375 h 5.625 5.625 v -23.4375 -23.4375 l -3.51563,-0.0128 -3.51562,-0.0128 -2.10938,-0.56529 -2.10937,-0.56529 v -1.76566 -1.76566 h 15 15 v 1.76566 1.76566 l -2.10938,0.56529 -2.10937,0.56529 -3.532,0.0128 -3.53201,0.0128 0.25076,23.20312 0.25075,23.20313 5.39062,0.28116 5.39063,0.28116 v 2.29696 2.29697 h -15 -15 z m 45.9375,-25.78125 v -28.125 h 11.1101 11.11011 l 3.18677,1.06737 3.18677,1.06736 2.2302,1.97951 2.2302,1.97951 1.28542,3.01676 1.28543,3.01677 -0.0206,4.01448 -0.0206,4.01449 -1.72201,3.75 -1.722,3.75 -1.94535,1.72976 -1.94534,1.72977 -3.57769,1.27596 -3.57768,1.27596 -6.79688,0.0412 -6.79687,0.0412 v 11.25 11.25 h -3.75 -3.75 z m 21.93884,-1.30722 3.12861,-1.30722 1.52878,-2.18263 1.52877,-2.18263 v -4.46411 -4.46411 l -2.72587,-3.05078 -2.72587,-3.05078 -7.58663,-0.34453 -7.58663,-0.34452 v 11.34926 11.34927 h 5.65511 5.65511 z m 47.43616,27.55722 v -1.875 h 3.13595 3.13594 l 1.48631,-1.64234 1.48629,-1.64234 0.90385,-2.3773 0.90385,-2.37729 -5.5261,-13.44988 -5.52609,-13.44989 v -0.34298 -0.34298 h 2.23441 2.23441 l 0.48816,1.64062 0.48816,1.64063 3.82348,9.84375 3.82348,9.84375 0.56833,-1.875 0.56832,-1.875 3.45144,-9.375 3.45144,-9.375 2.09043,-0.29958 2.09044,-0.29958 v 0.55636 0.55636 l -6.2448,16.4464 -6.24479,16.44639 -2.56884,2.74995 -2.56884,2.74995 h -3.84261 -3.84262 z"
         id="path6424"
         inkscape:connector-curvature="0" />
      <path
         style="fill:#373737;stroke-width:0.9375"
         d="M 673.12689,661.21801 V 658.919 l 5.85937,-0.27911 5.85938,-0.27911 v -22.95591 -22.95591 l -1.40625,-0.18764 -1.40625,-0.18763 -4.45313,-0.58577 -4.45312,-0.58578 v -1.81755 -1.81756 h 15 15 v 1.75781 1.75781 l -2.92969,0.58594 -2.92969,0.58594 h -2.69531 -2.69531 v 23.4375 23.4375 h 5.625 5.625 v 2.34375 2.34375 h -15 -15 z m 45.9375,-25.82598 v -28.125 h 11.5201 11.52011 l 4.12814,2.10937 4.12813,2.10938 1.82642,2.50829 1.82642,2.50829 0.45874,4.77426 0.45875,4.77426 -1.59451,4.17516 -1.59451,4.17517 -2.77426,2.33438 -2.77426,2.33438 -3.48651,0.9683 -3.48651,0.9683 -6.32813,0.005 -6.32812,0.005 v 11.25 11.25 h -3.75 -3.75 z m 25.39913,-3.5413 2.72587,-3.05078 v -4.96468 -4.96469 l -1.96503,-2.10921 -1.96502,-2.1092 -2.31476,-0.88007 -2.31475,-0.88007 h -6.03272 -6.03272 v 11.34927 11.34926 l 7.58663,-0.34452 7.58663,-0.34453 z m 43.97587,29.7913 v -1.875 h 3.13595 3.13594 l 1.48631,-1.64234 1.48629,-1.64234 0.91384,-2.40357 0.91384,-2.40356 -5.53609,-13.45147 -5.53608,-13.45147 v -0.38033 -0.38033 l 2.04045,0.29958 2.04044,0.29958 2.70018,6.5625 2.70019,6.5625 1.75837,5.15625 1.75839,5.15625 0.44117,-1.40625 0.44118,-1.40625 3.68568,-10.3125 3.68569,-10.3125 2.16234,-0.31687 2.16234,-0.31687 -0.45966,1.25437 -0.45966,1.25437 -5.96898,15.82122 -5.96899,15.82123 -2.51695,2.6944 -2.51695,2.6944 h -3.84261 -3.84262 z"
         id="path6422"
         inkscape:connector-curvature="0" />
      <path
         style="fill:#272727;stroke-width:0.9375"
         d="M 673.12689,661.21801 V 658.919 l 5.85937,-0.27911 5.85938,-0.27911 v -22.96875 -22.96875 l -5.85938,-0.78498 -5.85937,-0.78497 v -1.79315 -1.79315 h 15 15 v 1.75781 1.75781 l -2.92969,0.58594 -2.92969,0.58594 h -2.69531 -2.69531 v 23.4375 23.4375 h 5.625 5.625 v 2.34375 2.34375 h -15 -15 z m 45.9375,-25.82598 v -28.125 h 11.5201 11.52011 l 4.12814,2.10937 4.12813,2.10938 1.74475,2.3989 1.74475,2.39891 0.53416,5.17547 0.53415,5.17547 -1.90679,4.31062 -1.90679,4.31062 -3.88294,2.5696 -3.88293,2.56961 -8.6218,0.5454 -8.62179,0.5454 -0.26413,11.01562 -0.26412,11.01563 h -3.2515 -3.2515 z m 25.38941,-3.53042 2.73559,-3.06166 v -4.73434 -4.73435 l -0.96529,-1.80366 -0.96529,-1.80366 -2.73815,-1.41596 -2.73816,-1.41595 h -7.0778 -7.07781 v 11.3462 11.3462 l 8.04566,-0.33057 8.04567,-0.33058 z m 43.98559,29.78042 v -1.875 h 3.13595 3.13594 l 1.48631,-1.64234 1.48629,-1.64234 0.94493,-2.48533 0.94491,-2.48533 -5.56716,-13.36826 -5.56717,-13.36826 v -0.38177 -0.38178 l 2.04045,0.29958 2.04044,0.29958 2.70018,6.5625 2.70019,6.5625 1.75837,5.15625 1.75839,5.15625 0.44117,-1.40625 0.44118,-1.40625 3.68568,-10.3125 3.68569,-10.3125 2.03038,-0.29958 2.03038,-0.29958 v 0.46399 0.46398 l -5.57467,14.53991 -5.57466,14.5399 -1.96366,3.84909 -1.96366,3.84909 -2.36646,0.89972 -2.36645,0.89973 h -2.75147 -2.75147 z"
         id="path6420"
         inkscape:connector-curvature="0" />
      <path
         style="fill:#171717;stroke-width:0.9375"
         d="M 673.12689,661.21801 V 658.919 l 5.85937,-0.27911 5.85938,-0.27911 0.25051,-23.09218 0.25051,-23.09218 -6.10988,-0.65432 -6.10989,-0.65431 v -1.80038 -1.80038 h 15 15 v 1.82845 1.82844 l -5.625,0.6364 -5.625,0.6364 v 23.3164 23.31641 h 5.625 5.625 v 2.34375 2.34375 h -15 -15 z m 45.9375,-25.82598 v -28.125 l 10.54687,0.005 10.54688,0.005 3.73904,1.03803 3.73904,1.03803 2.97119,3.15037 2.97118,3.15037 0.63781,3.77512 0.6378,3.77512 -0.62987,3.72816 -0.62987,3.72817 -2.03066,2.98716 -2.03066,2.98716 -3.75,1.94118 -3.75,1.94118 -7.96875,0.48412 -7.96875,0.48412 -0.26413,11.01562 -0.26412,11.01563 h -3.2515 -3.2515 z m 22.83576,-1.40598 2.96287,-1.40597 1.21744,-1.94943 1.21744,-1.94943 0.0349,-4.50835 0.0349,-4.50835 -1.05447,-1.97029 -1.05447,-1.97029 -2.73815,-1.41596 -2.73816,-1.41595 h -7.0778 -7.07781 v 11.25 11.25 h 6.65519 6.65519 z m 47.16424,28.90598 -0.625,-0.625 v -1.1873 -1.18729 l 2.78003,0.079 2.78002,0.079 1.58394,-1.31362 1.58396,-1.31362 1.23557,-2.95584 1.23556,-2.95583 -5.59954,-13.44599 -5.59954,-13.44599 v -0.30401 -0.304 l 2.05608,0.29958 2.05607,0.29958 2.27928,5.625 2.27929,5.625 2.15961,6.09375 2.15961,6.09375 0.50888,-1.40625 0.50888,-1.40625 3.62514,-10.3125 3.62514,-10.3125 2.02726,-0.29958 2.02726,-0.29958 v 0.42336 0.42335 l -5.71542,14.87622 -5.71541,14.87623 -1.90296,3.41907 -1.90295,3.41908 -2.26949,1.03405 -2.2695,1.03405 h -2.14339 -2.14338 z"
         id="path6418"
         inkscape:connector-curvature="0" />
      <path
         style="fill:black;stroke-width:0.9375"
         d="m 673.29606,661.40765 0.29958,-2.10937 5.85937,-0.27911 5.85938,-0.27911 v -23.31815 -23.31814 l -6.09375,-0.65259 -6.09375,-0.65258 v -1.76579 -1.76578 h 15 15 v 1.75391 1.7539 l -5.625,0.6364 -5.625,0.6364 v 23.34416 23.34416 l 5.39062,0.28116 5.39063,0.28116 0.29958,2.10937 0.29958,2.10938 h -15.13041 -15.13041 z m 45.76833,-26.1076 v -28.21698 l 12.42187,0.32635 12.42188,0.32636 3.24808,1.90817 3.24807,1.90818 1.9034,3.24807 1.90339,3.24808 -7e-4,5.625 -7.1e-4,5.625 -2.19836,3.54477 -2.19837,3.54477 -3.8899,2.01378 -3.8899,2.01378 -8.20313,0.4155 -8.20312,0.4155 v 11.13532 11.13533 h -3.28125 -3.28125 z m 24.09298,-1.74377 2.99922,-1.82874 1.02129,-3.79275 1.02128,-3.79276 -1.02128,-3.79276 -1.02129,-3.79275 -2.99922,-1.82874 -2.99923,-1.82874 -7.26563,-0.004 -7.26562,-0.004 v 11.25 11.25 l 7.26562,-0.003 7.26563,-0.003 2.99923,-1.82874 z m 45.90702,29.33575 -0.625,-0.625 v -1.31318 -1.31317 l 1.75117,0.5558 1.75118,0.5558 2.2831,-0.86803 2.28311,-0.86804 1.63222,-3.61964 1.63224,-3.61964 -4.82716,-11.70807 -4.82716,-11.70808 -0.81615,-2.10938 -0.81614,-2.10937 h 1.875 1.875 l 1.02237,2.57812 1.02237,2.57813 3.58049,9.375 3.5805,9.375 0.50108,-1.40625 0.50108,-1.40625 3.2172,-8.90625 3.2172,-8.90625 0.6622,-1.64063 0.66221,-1.64062 h 1.875 1.875 l -0.65555,1.64062 -0.65554,1.64063 -5.48731,14.29993 -5.48731,14.29992 -1.61239,2.72957 -1.61239,2.72956 -2.23292,1.01738 -2.23293,1.01739 h -2.14339 -2.14338 z"
         id="path6416"
         inkscape:connector-curvature="0" />
    </g>
  </g>
</svg>
